:SAMPLES-PER-SECOND 30
:FULLY-SPECIFIED
:DEGREES
320
root  12.6681 35.6152 -4.58078 -38.9333 -72.1479 33.2584
RightUpLeg  -12.9845 -12.4611 -34.602
RightLeg  46.9957 -4.02052 -4.93795
RightFoot  -6.0511 -1.50669 30.8533
RightToes  -5.28226e-011 1.30204e-014 -6.03759e-014
Spine  30.8433 -1.12922 10.3318
Spine1  -5.32133 2.41812 -9.90295
HEad  -13.1704 -16.9628 -8.66371
LeftShoulder1  0.0657851 3.20262 -16.5749
LeftArm  -11.1049 -2.36963 -39.1641
LeftForeArm  -27.323 -9.60848 -11.54
LeftHand  -0.257012 4.35967 28.7725
RightShoulder  1.68217 2.45862 22.0074
RightArm  -42.9508 -53.5644 40.6788
RightForeArm  -21.0261 62.9072 25.1558
RightHand  -1.21322 -0.399668 -27.9382
LeftUpLeg  -32.5207 -3.82591 18.5654
LeftLeg  46.6338 4.39505 5.36614
LeftFoot  24.1678 4.06384 -13.1205
LeftToes  -2.75829e-010 5.07641e-011 -5.51782e-011
321
root  13.0601 34.2209 -3.85342 -61.3661 -75.8862 53.5124
RightUpLeg  -18.3972 -9.78795 -37.1436
RightLeg  53.1318 -1.52058 -2.60331
RightFoot  -9.3413 -0.570887 28.3497
RightToes  -5.28226e-011 1.30204e-014 -6.03759e-014
Spine  34.1572 0.0712529 15.607
Spine1  -3.09806 7.68059 -21.499
HEad  -13.4881 -22.0833 -7.19171
LeftShoulder1  0.090425 3.07251 -14.8055
LeftArm  -15.4331 -5.93389 -42.207
LeftForeArm  -32.9568 -17.4868 -8.94675
LeftHand  -0.221932 4.49273 28.5204
RightShoulder  1.8881 2.75968 24.059
RightArm  -29.3163 -51.1644 28.4166
RightForeArm  -29.6432 50.8811 15.9482
RightHand  -1.53164 0.984375 -27.577
LeftUpLeg  -28.2429 -0.0950748 17.5946
LeftLeg  52.193 3.99407 5.97158
LeftFoot  23.329 3.74444 -12.3498
LeftToes  -2.75829e-010 5.07641e-011 -5.51782e-011
322
root  13.3297 32.6577 -3.22303 -95.5038 -80.708 86.1478
RightUpLeg  -24.9265 -5.24942 -34.8721
RightLeg  59.0386 -0.464915 -1.32931
RightFoot  -12.747 0.251858 26.8431
RightToes  -5.28226e-011 1.30204e-014 -6.03759e-014
Spine  36.6323 0.599461 11.6724
Spine1  -2.76775 7.17579 -18.0112
HEad  -16.2945 -12.0267 -8.00643
LeftShoulder1  0.330523 2.01485 -14.8709
LeftArm  -24.9417 9.83442 -40.966
LeftForeArm  -37.326 -35.3767 -9.57801
LeftHand  -0.0231066 5.28786 28.6476
RightShoulder  1.46502 1.87668 20.846
RightArm  -21.4462 -28.629 20.7183
RightForeArm  -36.4522 34.588 9.41672
RightHand  -1.66122 1.25052 -28.6797
LeftUpLeg  -23.1148 4.28928 23.3934
LeftLeg  57.2115 2.40145 4.52298
LeftFoot  15.6072 4.22129 -18.391
LeftToes  -2.75829e-010 5.07641e-011 -5.51782e-011
323
root  13.4823 30.927 -2.63712 -138.788 -84.4747 128.815
RightUpLeg  -29.4743 -2.92834 -31.0484
RightLeg  64.9705 0.490293 0.58428
RightFoot  -15.7146 0.967232 27.5467
RightToes  -5.28226e-011 1.30204e-014 -6.03759e-014
Spine  36.9603 0.450785 2.17678
Spine1  -2.52017 1.62688 -2.52926
HEad  -20.82 5.56521 -9.10613
LeftShoulder1  0.839085 0.321098 -19.7093
LeftArm  -34.9546 31.2628 -37.606
LeftForeArm  -36.7395 -49.7914 -15.2099
LeftHand  0.147524 5.95893 29.1479
RightShoulder  0.984898 0.69886 16.9531
RightArm  -26.8372 1.49181 23.0354
RightForeArm  -33.6758 23.8151 6.46766
RightHand  -1.82463 1.52172 -30.2115
LeftUpLeg  -20.7239 4.64372 32.425
LeftLeg  62.0805 -0.38729 -0.248016
LeftFoot  1.04454 3.47577 -31.9936
LeftToes  -2.75829e-010 5.07641e-011 -5.51782e-011
324
root  13.6896 29.3232 -1.89988 -155.069 -87.9997 144.133
RightUpLeg  -30.4514 -4.78963 -30.0598
RightLeg  69.7006 1.67224 4.23598
RightFoot  -18.0022 1.62695 29.4692
RightToes  -5.28226e-011 1.30204e-014 -6.03759e-014
Spine  37.7351 0.584936 -4.79163
Spine1  -1.03344 -2.8854 12.0404
HEad  -24.8558 16.4148 -8.1086
LeftShoulder1  1.31214 -0.931919 -23.439
LeftArm  -34.4196 38.7438 -37.0577
LeftForeArm  -38.6696 -49.7708 -15.6279
LeftHand  0.141305 5.93027 29.3149
RightShoulder  0.819929 0.37693 14.3208
RightArm  -33.9532 14.2479 27.0213
RightForeArm  -27.2327 28.3976 7.50778
RightHand  -1.8741 1.71675 -30.1228
LeftUpLeg  -22.1071 0.629185 37.9657
LeftLeg  67.0069 -2.79119 -6.44144
LeftFoot  -12.624 -0.321763 -42.5294
LeftToes  -2.75829e-010 5.07641e-011 -5.51782e-011
325
root  13.9316 28.2765 -1.08736 109.889 -89.683 -121.861
RightUpLeg  -29.6449 -7.69008 -32.7025
RightLeg  72.0355 2.29831 7.00562
RightFoot  -18.8992 1.96639 31.037
RightToes  -5.28226e-011 1.30204e-014 -6.03759e-014
Spine  38.8087 1.31877 -4.28734
Spine1  0.723783 -2.42052 12.8892
HEad  -28.9579 14.9022 -5.69781
LeftShoulder1  1.32868 -1.37624 -20.8371
LeftArm  -25.6818 28.5198 -37.0861
LeftForeArm  -43.1449 -38.8851 -11.125
LeftHand  0.172417 6.02882 29.9605
RightShoulder  0.730399 0.306299 12.201
RightArm  -36.7117 3.51193 26.7465
RightForeArm  -27.7679 41.1274 11.3836
RightHand  -1.48926 0.777155 -27.7393
LeftUpLeg  -24.3798 -3.94296 37.5378
LeftLeg  70.9405 -2.91759 -8.42019
LeftFoot  -21.1551 -3.70142 -43.033
LeftToes  -2.75829e-010 5.07641e-011 -5.51782e-011
326
root  13.9923 27.8966 -0.334867 -21.0666 -88.1237 8.69357
RightUpLeg  -28.8175 -7.05305 -35.7964
RightLeg  71.8261 2.00306 5.98024
RightFoot  -18.1353 1.81845 31.9406
RightToes  -5.28226e-011 1.30204e-014 -6.03759e-014
Spine  38.8859 1.5217 1.88237
Spine1  1.79496 1.8518 1.21545
HEad  -31.065 5.9856 -3.64273
LeftShoulder1  1.38564 -2.05126 -18.3006
LeftArm  -18.4689 9.19958 -35.233
LeftForeArm  -45.0081 -26.8775 -7.62851
LeftHand  0.459409 6.95393 32.6689
RightShoulder  1.07772 1.31587 15.4166
RightArm  -36.1447 -17.9816 23.038
RightForeArm  -31.7488 48.8983 14.6976
RightHand  -1.36678 0.376276 -27.1993
LeftUpLeg  -24.4233 -5.80061 34.3931
LeftLeg  72.3648 -2.15622 -6.68779
LeftFoot  -27.1228 -5.48882 -39.2599
LeftToes  -2.75829e-010 5.07641e-011 -5.51782e-011
327
root  13.7792 28.0911 0.271793 -33.1648 -86.5494 20.2489
RightUpLeg  -26.0427 -2.72008 -36.8599
RightLeg  69.4738 0.878923 1.86282
RightFoot  -17.3082 1.65815 33.1211
RightToes  -5.28226e-011 1.30204e-014 -6.03759e-014
Spine  38.0258 1.19945 5.82737
Spine1  2.1715 4.57324 -8.46462
HEad  -28.2973 -1.09855 -2.2127
LeftShoulder1  1.70283 -2.99881 -19.7249
LeftArm  -17.1944 -4.91115 -31.5895
LeftForeArm  -43.4285 -21.4152 -6.84509
LeftHand  0.731898 7.66357 35.7139
RightShoulder  1.66829 2.68052 20.7846
RightArm  -30.3039 -32.0289 22.7412
RightForeArm  -36.6307 44.8311 13.2
RightHand  -1.6079 0.92587 -29.1735
LeftUpLeg  -23.0108 -5.75436 32.1526
LeftLeg  71.4608 -2.41596 -7.08884
LeftFoot  -31.4279 -6.60215 -37.0654
LeftToes  -2.75829e-010 5.07641e-011 -5.51782e-011
328
root  13.3656 28.8182 0.75089 -17.2472 -83.0094 3.43808
RightUpLeg  -19.7972 0.922071 -35.7975
RightLeg  65.3933 -1.24313 -3.54607
RightFoot  -16.5326 1.5428 35.806
RightToes  -5.28226e-011 1.30204e-014 -6.03759e-014
Spine  35.999 1.17463 3.41379
Spine1  2.0514 3.25597 -7.46867
HEad  -23.0003 -3.36324 -0.372325
LeftShoulder1  1.68789 -2.92896 -19.7264
LeftArm  -17.0268 -9.9499 -30.4852
LeftForeArm  -43.0449 -19.989 -7.2423
LeftHand  0.583461 7.1854 35.7167
RightShoulder  1.69424 2.67005 21.1395
RightArm  -22.9121 -38.365 29.8802
RightForeArm  -39.0525 37.7441 10.5359
RightHand  -1.64591 0.718202 -30.7945
LeftUpLeg  -22.3369 -6.33337 31.1576
LeftLeg  69.2527 -3.64317 -9.75645
LeftFoot  -31.7754 -6.58077 -36.3904
LeftToes  -2.75829e-010 5.07641e-011 -5.51782e-011
329
root  12.9153 30.1655 1.31226 -7.53659 -79.0243 -6.52893
RightUpLeg  -13.3631 1.06057 -33.4208
RightLeg  59.7349 -5.02665 -9.62579
RightFoot  -10.425 -0.401251 37.9168
RightToes  -5.28226e-011 1.30204e-014 -6.03759e-014
Spine  33.5164 1.12009 -1.47122
Spine1  1.21165 0.221645 -0.894725
HEad  -18.5436 -2.59959 1.8024
LeftShoulder1  1.43258 -2.72283 -16.3226
LeftArm  -18.0445 -8.25019 -34.5149
LeftForeArm  -42.6213 -19.3946 -7.27838
LeftHand  0.174554 5.94945 33.6674
RightShoulder  1.37421 1.83301 19.3777
RightArm  -20.547 -42.8555 38.4236
RightForeArm  -36.9142 34.6351 9.49816
RightHand  -1.57246 0.41844 -30.9176
LeftUpLeg  -21.6313 -7.07032 30.3821
LeftLeg  65.199 -4.65651 -10.2859
LeftFoot  -28.3658 -5.22603 -34.9612
LeftToes  -2.75829e-010 5.07641e-011 -5.51782e-011
330
root  12.6166 32.0882 2.02474 5.04388 -78.5814 -18.5302
RightUpLeg  -11.4388 -0.293303 -30.1514
RightLeg  53.4061 -9.72018 -14.1469
RightFoot  5.58025 -4.92696 33.6583
RightToes  -5.28226e-011 1.30204e-014 -6.03759e-014
Spine  31.4096 0.881572 -4.74512
Spine1  -0.317236 -2.00108 5.48958
HEad  -16.1487 1.95672 1.80518
LeftShoulder1  1.3768 -3.52772 -12.5236
LeftArm  -23.6447 0.0565502 -41.1898
LeftForeArm  -40.2247 -20.6903 -6.73711
LeftHand  -0.0419007 5.22265 32.672
RightShoulder  1.17924 1.09764 19.2624
RightArm  -22.932 -45.007 42.8108
RightForeArm  -33.4811 34.7552 9.42277
RightHand  -1.58109 0.507237 -30.6362
LeftUpLeg  -18.0596 -5.31334 30.6559
LeftLeg  57.9929 -5.55873 -8.9605
LeftFoot  -24.2021 -3.73048 -33.4811
LeftToes  -2.75829e-010 5.07641e-011 -5.51782e-011
